<?xml version="1.0" encoding="UTF-8" standalone="no"?>
<!DOCTYPE svg PUBLIC "-//W3C//DTD SVG 1.1//EN" "http://www.w3.org/Graphics/SVG/1.1/DTD/svg11.dtd">
<svg width="100%" height="100%" viewBox="0 0 100 100" version="1.1" xmlns="http://www.w3.org/2000/svg" xmlns:xlink="http://www.w3.org/1999/xlink" xml:space="preserve" xmlns:serif="http://www.serif.com/" style="fill-rule:evenodd;clip-rule:evenodd;stroke-linecap:round;stroke-linejoin:round;stroke-miterlimit:1.5;">
    <g transform="matrix(0.128478,0,0,0.128478,-25.8324,-20.5123)">
        <path d="M921.22,722.251C973.301,729.578 979.33,828.34 979.409,938" style="fill:none;stroke:black;stroke-width:2.71px;"/>
    </g>
    <g transform="matrix(0.128478,0,0,0.128478,-25.8324,-20.5123)">
        <path d="M736.166,630.96C782.543,652.091 846.247,683.617 921.952,722.345C865.995,725.74 834.211,810.914 810.805,938" style="fill:none;stroke:black;stroke-width:2.71px;"/>
    </g>
    <g transform="matrix(0.128478,0,0,0.128478,-25.8324,-20.5123)">
        <path d="M265.571,714.51C238.866,709.72 208.189,844.502 204.58,879.251C202.008,904.017 202.008,910.195 201.065,938" style="fill:none;stroke:black;stroke-width:2.71px;"/>
    </g>
    <g transform="matrix(0.128478,0,0,0.128478,-25.8324,-20.5123)">
        <path d="M447.797,623.889C428.775,645.764 374.921,664.065 350.476,675.446C317.191,690.944 296.803,695.691 265.469,714.435C240.61,756.15 266.066,848.58 288.912,938" style="fill:none;stroke:black;stroke-width:2.71px;"/>
    </g>
    <g transform="matrix(0.128478,0,0,0.128478,-25.8324,-20.5123)">
        <path d="M396.897,705.246C391.226,700.363 385.141,695.066 378.651,689.364C418.056,658.087 449.003,627.452 465.884,597.882" style="fill:none;stroke:black;stroke-width:2.71px;"/>
    </g>
    <g transform="matrix(0.128478,0,0,0.128478,-25.8324,-20.5123)">
        <path d="M461.103,659.317C461.103,659.317 457.434,654.664 450.457,656.294C437.524,659.317 398.615,717.347 350.578,733.67C348.738,781.282 372.2,857.945 398.615,938" style="fill:none;stroke:black;stroke-width:2.71px;"/>
    </g>
    <g transform="matrix(0.128478,0,0,0.128478,-25.8324,-20.5123)">
        <path d="M703.5,705.246C718.775,701.824 732.614,698.761 745.224,696.006C742.957,674.731 740.025,653.122 736.425,631.181C709.829,607.725 687.623,583.956 670.358,559.834" style="fill:none;stroke:black;stroke-width:2.71px;"/>
    </g>
    <g transform="matrix(0.128478,0,0,0.128478,-25.8324,-20.5123)">
        <path d="M491.434,713.56C518.988,701.934 566.198,712.262 589.207,721.591" style="fill:none;stroke:black;stroke-width:2.71px;"/>
    </g>
    <g transform="matrix(0.128478,0,0,0.128478,-25.8324,-20.5123)">
        <path d="M460.077,938C453.928,836.75 448.984,769.014 458.813,689.292" style="fill:none;stroke:black;stroke-width:2.71px;"/>
    </g>
    <g transform="matrix(0.128478,0,0,0.128478,-25.8324,-20.5123)">
        <path d="M412.128,435.2C411.779,439.68 409.979,399.025 404.469,380.733C394.566,347.851 395.122,309.415 404.469,289.18C431.398,230.885 505.032,181.381 546.142,181.381C606.795,181.381 641.753,193.628 673.969,217.704C774.842,293.086 728.747,419.542 728.747,419.542C728.747,419.542 726.424,402.798 716.149,405.416C670.154,417.134 677.801,449.542 673.969,446.45L651.532,443.786" style="fill:none;stroke:black;stroke-width:2.71px;"/>
    </g>
    <g transform="matrix(0.128478,0,0,0.128478,-25.8324,-20.5123)">
        <path d="M728.747,419.542C728.747,419.542 727.653,424.122 725.884,430.629C722.702,442.336 717.333,460.279 712.215,469C704.675,481.847 700.371,503.073 680.971,500.952C671.356,499.9 666.599,485.017 666.599,485.017" style="fill:none;stroke:black;stroke-width:2.71px;"/>
    </g>
    <g transform="matrix(0.128478,0,0,0.128478,-25.8324,-20.5123)">
        <path d="M431.398,340.44C421.179,349.735 421.179,367.042 416.636,397.67C413.661,417.723 410.853,433.596 413.745,472.466C416.344,507.41 461.75,608.2 490.293,623.639C504.137,631.127 528.461,633.491 545.031,625.819C570.375,614.084 618.532,577.927 642.354,553.232C661.159,533.737 673.969,446.45 673.969,446.45L651.532,443.786C651.532,443.786 658.294,372.182 590.538,356.233C555.377,347.957 590.538,293.901 590.538,293.901C590.538,293.901 532.741,301.601 511.1,307.741C491.215,313.383 472.51,319.611 458.744,325.718C441.386,333.418 438.892,333.623 431.398,340.44Z" style="fill:none;stroke:black;stroke-width:2.71px;"/>
    </g>
    <g transform="matrix(0.128478,0,0,0.128478,-25.8324,-20.5123)">
        <path d="M590.538,293.901C590.538,293.901 609.547,263.3 642.354,263.3C697.396,263.3 735.575,311.857 735.575,311.857" style="fill:none;stroke:black;stroke-width:2.71px;"/>
    </g>
    <g transform="matrix(0.128478,0,0,0.128478,-25.8324,-20.5123)">
        <path d="M532.852,181.381C532.852,181.381 600.975,223.655 571.907,247.192C548.461,266.177 402.975,293.901 402.975,293.901" style="fill:none;stroke:black;stroke-width:2.71px;"/>
    </g>
    <g transform="matrix(0.128478,0,0,0.128478,-25.8324,-20.5123)">
        <path d="M676.507,501.099C676.507,501.099 671.864,580.441 660.1,596.406C622.521,647.405 612.94,641.516 578.253,670.702C559.449,686.524 548.212,686.524 544.26,686.524C527.364,686.524 498.761,656.933 485.121,640.679C474.01,627.439 470.248,603.613 470.248,603.613" style="fill:none;stroke:black;stroke-width:2.71px;"/>
    </g>
    <g transform="matrix(0.128478,0,0,0.128478,-25.8324,-20.5123)">
        <path d="M612.258,733.67C612.049,732.381 547.986,700.775 527.903,693.753" style="fill:none;stroke:black;stroke-width:2.71px;"/>
    </g>
    <g transform="matrix(0.128478,0,0,0.128478,-25.8324,-20.5123)">
        <path d="M669.285,566.297C669.285,566.297 676.507,577.75 676.507,587.181C676.507,604.464 646.499,646.667 635.791,671.082C626.838,691.493 612.258,733.67 612.258,733.67C612.049,732.381 558.021,901.481 545.512,938" style="fill:none;stroke:black;stroke-width:2.71px;"/>
    </g>
    <g transform="matrix(0.128478,0,0,0.128478,-25.8324,-20.5123)">
        <path d="M465.635,596.896C465.635,596.896 452.496,733.67 460.995,733.67C464.084,733.67 494.427,709.157 517.446,698.268C537.698,688.687 554.432,684.968 554.432,684.968" style="fill:none;stroke:black;stroke-width:2.71px;"/>
    </g>
    <g transform="matrix(0.128478,0,0,0.128478,-25.8324,-20.5123)">
        <path d="M498.842,773.024C498.842,773.024 490.163,806.329 485.406,822.497C477.567,849.139 475.408,938 475.408,938" style="fill:none;stroke:black;stroke-width:2.71px;"/>
    </g>
    <g transform="matrix(0.128478,0,0,0.128478,-25.8324,-20.5123)">
        <path d="M557.38,901.481C557.38,901.481 558.821,810.059 557.38,802.455C556.292,796.711 550.049,773.024 550.049,773.024" style="fill:none;stroke:black;stroke-width:2.71px;"/>
    </g>
    <g transform="matrix(0.128478,0,0,0.128478,-25.8324,-20.5123)">
        <path d="M491.434,713.56C491.434,713.56 495.374,727.216 498.824,733.67C503.688,742.769 496.666,770.103 498.824,773.024C502.095,777.45 545.479,775.398 549.414,773.945C553.322,772.502 551.399,754.605 563.122,740.547C570.125,732.15 589.207,721.783 589.207,721.783" style="fill:none;stroke:black;stroke-width:2.71px;"/>
    </g>
    <g transform="matrix(0.128478,0,0,0.128478,-25.8324,-20.5123)">
        <path d="M647.437,649.983C679.825,683.096 708.3,712.996 742.341,738.019C698.997,798.552 665.128,867.042 625.176,938" style="fill:none;stroke:black;stroke-width:2.71px;"/>
    </g>
    <g transform="matrix(0.128478,0,0,0.128478,-25.8324,-20.5123)">
        <path d="M496.377,289.687C536.064,287.825 597.262,280.424 613.541,256.881C630.798,231.926 579.741,183.866 575.127,182.446" style="fill:none;stroke:black;stroke-width:2.71px;"/>
    </g>
    <g transform="matrix(0.128478,0,0,0.128478,-25.8324,-20.5123)">
        <path d="M664.13,265.416C682.375,308.181 685.981,339.425 678.19,379.065" style="fill:none;stroke:black;stroke-width:2.71px;"/>
    </g>
    <g transform="matrix(0.128478,0,0,0.128478,-25.8324,-20.5123)">
        <path d="M601.309,208.038C626.493,208.667 646.115,217.506 653.799,243.969" style="fill:none;stroke:black;stroke-width:2.71px;"/>
    </g>
</svg>
